#N canvas 0 54 1920 976 12;
#X obj 442 259 until;
#X obj 442 289 f;
#X obj 478 289 + 1;
#X obj 492 199 -;
#X obj 442 229 f;
#X obj 478 229 f;
#X obj 492 169 f;
#X obj 442 139 t b b;
#X obj 442 49 inlet start-bang;
#X obj 541 350 ==;
#X obj 559 320 - 1;
#X obj 442 320 t f f f;
#X obj 541 380 sel 1;
#X obj 541 410 outlet end;
#X obj 442 410 outlet count;
#X obj 492 139 t b f f;
#X obj 556 139 t f f;
#X obj 450 79 inlet start;
#X obj 472 109 inlet end;
#X connect 0 0 1 0;
#X connect 1 0 11 0;
#X connect 2 0 1 1;
#X connect 3 0 4 1;
#X connect 4 0 0 0;
#X connect 5 0 1 1;
#X connect 6 0 3 0;
#X connect 7 0 4 0;
#X connect 7 1 5 0;
#X connect 8 0 7 0;
#X connect 9 0 12 0;
#X connect 10 0 9 1;
#X connect 11 0 9 0;
#X connect 11 1 14 0;
#X connect 11 2 2 0;
#X connect 12 0 13 0;
#X connect 15 0 6 0;
#X connect 15 1 3 1;
#X connect 15 2 5 1;
#X connect 16 0 6 0;
#X connect 16 1 10 0;
#X connect 17 0 15 0;
#X connect 18 0 16 0;
