#N canvas 4 0 1920 976 12;
#X obj 180 244 del;
#X obj 230 244 inlet target;
#X obj 247 274 inlet time;
#X obj 78 154 route bang stop;
#X obj 180 184 unpack;
#X obj 180 334 t l l;
#X obj 180 274 f \$1;
#X obj 180 304 pack f \$2;
#X msg 230 214 stop;
#X obj 180 214 t f b;
#X obj 293 364 outlet next-line-chain;
#X obj 78 124 inlet startbang-or-stop-or-previous-line-chain;
#X text 408 113 starts by banging or by receiving previous line-input;
#X obj 180 364 outlet to-line;
#X text 409 130 stop message stops and ripples to other connected line-chains;
#X text 273 183 when receiving previous line input ripple stop below line-chains connected and sends current line after the previous line delay;
#X msg 129 214 stop;
#X connect 0 0 6 0;
#X connect 1 0 6 1;
#X connect 2 0 7 1;
#X connect 3 0 6 0;
#X connect 3 1 8 0;
#X connect 3 1 16 0;
#X connect 3 2 4 0;
#X connect 4 1 9 0;
#X connect 5 0 13 0;
#X connect 5 1 10 0;
#X connect 6 0 7 0;
#X connect 7 0 5 0;
#X connect 8 0 10 0;
#X connect 9 0 0 0;
#X connect 9 1 8 0;
#X connect 11 0 3 0;
#X connect 16 0 0 0;
