#N canvas 413 200 1155 758 12;
#X obj 228 171 moses 60;
#X obj 281 201 moses 72;
#X obj 281 351 sel 60 61 62 63 64 65 66 67 68 69 70 71, f 66;
#X msg 281 569 C, f 2;
#X msg 529 569 B, f 2;
#X msg 326 569 D, f 2;
#X msg 371 569 E, f 2;
#X msg 394 569 F, f 2;
#X msg 439 569 G, f 2;
#X msg 484 569 A, f 2;
#X obj 238 230 f;
#X obj 238 259 - 1;
#X obj 196 201 t f b;
#X obj 238 288 t f f;
#X obj 351 627 swap 4;
#X obj 351 657 +;
#X obj 281 627 pack s 4;
#X msg 298 171 0;
#X obj 376 259 f;
#X obj 334 230 t f b;
#X obj 376 317 t f f;
#X obj 376 288 + 1;
#X msg 264 598 4, f 2;
#X obj 196 230 + 12;
#X obj 334 259 - 12;
#X obj 228 26 inlet midi-number;
#X obj 228 142 t f b;
#X obj 175 657 outlet note-name-octave;
#X obj 319 460 route # b;
#X msg 319 430 b;
#X msg 319 490 C#, f 2;
#X msg 349 490 Db, f 2;
#X obj 395 460 route # b;
#X msg 395 430 b;
#X obj 510 460 route # b;
#X msg 510 430 b;
#X obj 587 460 route # b;
#X msg 587 430 b;
#X obj 663 460 route # b;
#X msg 663 430 b;
#X msg 758 351 set \$1;
#X obj 758 322 symbol;
#X obj 758 293 inlet #-b;
#X msg 395 490 D#, f 2;
#X msg 425 490 Eb, f 2;
#X msg 510 490 F#, f 2;
#X msg 540 490 Gb, f 2;
#X msg 587 490 G#, f 2;
#X msg 617 490 Ab, f 2;
#X msg 663 490 A#, f 2;
#X msg 693 490 Bb, f 2;
#X obj 228 55 i;
#X obj 228 84 max;
#X obj 228 113 min 127;
#X connect 0 0 12 0;
#X connect 0 1 1 0;
#X connect 1 0 2 0;
#X connect 1 1 19 0;
#X connect 2 0 3 0;
#X connect 2 1 29 0;
#X connect 2 2 5 0;
#X connect 2 3 33 0;
#X connect 2 4 6 0;
#X connect 2 5 7 0;
#X connect 2 6 35 0;
#X connect 2 7 8 0;
#X connect 2 8 37 0;
#X connect 2 9 9 0;
#X connect 2 10 39 0;
#X connect 2 11 4 0;
#X connect 3 0 16 0;
#X connect 4 0 16 0;
#X connect 5 0 16 0;
#X connect 6 0 16 0;
#X connect 7 0 16 0;
#X connect 8 0 16 0;
#X connect 9 0 16 0;
#X connect 10 0 11 0;
#X connect 11 0 13 0;
#X connect 12 0 23 0;
#X connect 12 1 10 0;
#X connect 13 0 14 0;
#X connect 13 1 10 1;
#X connect 14 0 15 0;
#X connect 14 1 15 1;
#X connect 15 0 16 1;
#X connect 16 0 27 0;
#X connect 17 0 10 1;
#X connect 17 0 18 1;
#X connect 18 0 21 0;
#X connect 19 0 24 0;
#X connect 19 1 18 0;
#X connect 20 0 14 0;
#X connect 20 1 18 1;
#X connect 21 0 20 0;
#X connect 22 0 16 1;
#X connect 23 0 0 0;
#X connect 24 0 0 0;
#X connect 25 0 51 0;
#X connect 26 0 0 0;
#X connect 26 1 17 0;
#X connect 26 1 22 0;
#X connect 28 0 30 0;
#X connect 28 1 31 0;
#X connect 29 0 28 0;
#X connect 30 0 16 0;
#X connect 31 0 16 0;
#X connect 32 0 43 0;
#X connect 32 1 44 0;
#X connect 33 0 32 0;
#X connect 34 0 45 0;
#X connect 34 1 46 0;
#X connect 35 0 34 0;
#X connect 36 0 47 0;
#X connect 36 1 48 0;
#X connect 37 0 36 0;
#X connect 38 0 49 0;
#X connect 38 1 50 0;
#X connect 39 0 38 0;
#X connect 40 0 29 0;
#X connect 40 0 33 0;
#X connect 40 0 35 0;
#X connect 40 0 37 0;
#X connect 40 0 39 0;
#X connect 41 0 40 0;
#X connect 42 0 41 0;
#X connect 43 0 16 0;
#X connect 44 0 16 0;
#X connect 45 0 16 0;
#X connect 46 0 16 0;
#X connect 47 0 16 0;
#X connect 48 0 16 0;
#X connect 49 0 16 0;
#X connect 50 0 16 0;
#X connect 51 0 52 0;
#X connect 52 0 53 0;
#X connect 53 0 26 0;
