#N canvas 302 147 999 682 12;
#X msg 64 341 60;
#X msg 84 311 61;
#X msg 145 311 63;
#X msg 124 341 62;
#X msg 180 341 64, f 2;
#X obj 64 283 route C C# Db D D# Eb E F F# Gb G G# Ab A A# Bb B;
#X msg 384 341 71;
#X msg 204 341 65;
#X msg 224 311 66;
#X msg 264 341 67;
#X msg 285 311 68;
#X msg 324 341 69;
#X msg 344 311 70;
#X obj 432 341 *;
#X obj 432 283 - 4;
#X obj 414 401 +;
#X obj 64 225 unpack s f;
#X obj 432 312 swap 12;
#X msg 64 254 \$1;
#X obj 64 196 inlet note-octave;
#X obj 414 430 outlet midi-number;
#X obj 496 372 print;
#X msg 496 342 ntom: \$1 is not a valid note;
#X obj 496 312 symbol;
#X connect 0 0 15 0;
#X connect 1 0 15 0;
#X connect 2 0 15 0;
#X connect 3 0 15 0;
#X connect 4 0 15 0;
#X connect 5 0 0 0;
#X connect 5 1 1 0;
#X connect 5 2 1 0;
#X connect 5 3 3 0;
#X connect 5 4 2 0;
#X connect 5 5 2 0;
#X connect 5 6 4 0;
#X connect 5 7 7 0;
#X connect 5 8 8 0;
#X connect 5 9 8 0;
#X connect 5 10 9 0;
#X connect 5 11 10 0;
#X connect 5 12 10 0;
#X connect 5 13 11 0;
#X connect 5 14 12 0;
#X connect 5 15 12 0;
#X connect 5 16 6 0;
#X connect 5 17 23 0;
#X connect 6 0 15 0;
#X connect 7 0 15 0;
#X connect 8 0 15 0;
#X connect 9 0 15 0;
#X connect 10 0 15 0;
#X connect 11 0 15 0;
#X connect 12 0 15 0;
#X connect 13 0 15 1;
#X connect 14 0 17 0;
#X connect 15 0 20 0;
#X connect 16 0 18 0;
#X connect 16 1 14 0;
#X connect 17 0 13 0;
#X connect 17 1 13 1;
#X connect 18 0 5 0;
#X connect 19 0 16 0;
#X connect 22 0 21 0;
#X connect 23 0 22 0;
