#N canvas 153 105 904 566 12;
#X obj 132 323 -;
#X obj 132 293 f;
#X obj 93 383 random;
#X obj 132 353 + 1;
#X obj 160 413 +;
#X obj 132 263 t b f f;
#X obj 160 443 outlet number;
#X obj 93 233 inlet bang;
#X obj 178 233 inlet min;
#X obj 256 233 inlet max;
#X connect 0 0 3 0;
#X connect 1 0 0 0;
#X connect 2 0 4 0;
#X connect 3 0 2 1;
#X connect 4 0 6 0;
#X connect 5 0 1 0;
#X connect 5 1 0 1;
#X connect 5 2 4 1;
#X connect 7 0 2 0;
#X connect 8 0 5 0;
#X connect 9 0 1 0;
#X coords 0 566 1 565 120 60 0;
