#N canvas 32 32 516 427 12;
#X obj 35 233 outlet~ freq;
#X obj 35 13 inlet~ freq;
#X obj 35 43 osc~;
#X obj 99 43 phasor~;
#X obj 99 73 -~ 0.5;
#X obj 99 103 abs~;
#X obj 99 133 *~ 4;
#X obj 99 163 -~ 1;
#X obj 35 193 *~ 0.3;
#X obj 99 193 *~ 0.7;
#X text 150 193 osc triangle;
#X connect 1 0 3 0;
#X connect 1 0 2 0;
#X connect 2 0 8 0;
#X connect 3 0 4 0;
#X connect 4 0 5 0;
#X connect 5 0 6 0;
#X connect 6 0 7 0;
#X connect 7 0 9 0;
#X connect 8 0 0 0;
#X connect 9 0 0 0;
