#N canvas 4 0 1920 976 12;
#X obj 538 1085 output~;
#X obj 687 569 ntom;
#X obj 647 509 unpack f s f;
#X obj 697 539 pack s f;
#X obj 647 569 for;
#X obj 647 539 t b f;
#X obj 647 599 t b;
#X obj 670 902 random-min-max;
#X msg 717 872 200;
#X msg 765 872 400;
#X obj 717 842 loadbang;
#X obj 598 902 f;
#X obj 634 902 + 1;
#X obj 598 932 pack;
#X obj 659 932 pack;
#X msg 616 872 0;
#X obj 647 842 t b b f;
#X obj 647 720 random-min-max;
#X obj 647 781 +;
#X obj 647 812 mtof;
#X obj 722 660 * 2;
#X obj 704 690 -;
#X obj 704 629 t f f f;
#X obj 647 750 / 1000;
#X msg 780 1025 all \$1;
#X msg 538 1025 all \$1;
#X msg 841 1025 all \$1;
#X msg 901 1025 all \$1;
#X msg 962 1025 all \$1;
#X msg 538 995 1;
#X obj 538 1055 clone voice 25, f 61;
#X msg 720 1025 all \$1;
#X text 737 569 note to midi;
#X text 680 781 midi detuned;
#X text 335 897 for each end freq generate a random start freq betweenn 200 and 400 hz, f 35;
#X obj 423 965 t b;
#X obj 875 380 for;
#X obj 875 350 t b f;
#X obj 875 440 f;
#X obj 911 440 + 1;
#X msg 911 410 0;
#X msg 456 1025 resize \$1;
#X obj 893 470 f;
#X obj 875 410 t b;
#N canvas 4 0 1920 976 route-resize-or-generate-freqs 0;
#X obj 222 260 inlet message;
#X obj 384 420 spigot;
#X obj 423 400 tgl 19 0 empty empty empty 0 -10 0 12 #fcfcfc #000000 #000000 0 1;
#X msg 423 380 0;
#X msg 453 380 1;
#X obj 222 420 spigot;
#X obj 261 400 tgl 19 0 empty empty empty 0 -10 0 12 #fcfcfc #000000 #000000 0 1;
#X msg 261 380 0;
#X msg 291 380 1;
#X obj 453 350 t b;
#X obj 291 350 t b;
#X obj 291 290 inlet generate-freqs-bang;
#X obj 453 320 inlet resize-bang;
#X obj 222 450 outlet generate-freqs;
#X obj 384 450 outlet resize;
#X connect 0 0 5 0;
#X connect 0 0 1 0;
#X connect 1 0 14 0;
#X connect 2 0 1 1;
#X connect 3 0 2 0;
#X connect 4 0 2 0;
#X connect 5 0 13 0;
#X connect 6 0 5 1;
#X connect 7 0 6 0;
#X connect 8 0 6 0;
#X connect 9 0 4 0;
#X connect 9 0 7 0;
#X connect 10 0 8 0;
#X connect 10 0 3 0;
#X connect 11 0 10 0;
#X connect 12 0 9 0;
#X restore 647 320 pd route-resize-or-generate-freqs;
#X text 872 271 route-resize;
#X text 759 270 route-generate;
#X obj 875 290 t b b;
#X obj 843 80 t b b;
#X obj 761 290 t b b;
#X obj 647 80 t b b;
#X text 940 411 reset count;
#X text 532 873 reset count;
#X text 883 80 resize voices;
#X text 688 80 generate start freqs;
#X text 763 539 note octave;
#X obj 423 80 t b;
#X text 450 80 set detune and time params;
#X obj 275 80 t b;
#X obj 607 50 t b b b b;
#X obj 607 20 bng 19 250 50 0 empty empty empty 0 -10 0 12 #fcfcfc #000000 #000000;
#X obj 275 50 bng 19 250 50 0 empty empty empty 0 -10 0 12 #fcfcfc #000000 #000000;
#X text 302 80 play thx sound;
#X text 297 49 play with previous params;
#X text 629 20 play with new params;
#X text 685 470 bang to resize at end of loop;
#X text 505 995 play;
#X text 520 932 start freq;
#X text 695 932 end freq;
#X text 730 1074 work needs to be done on synth panning and eq;
#X text 687 812 midi to freq;
#X floatatom 740 691 5 0 0 0 - - - 0;
#X floatatom 788 691 5 0 0 0 - - - 0;
#X obj 649 953 cnv 19 400 70 empty empty empty 20 12 0 12 #e0e0e0 #404040 0;
#X msg 962 995 8000;
#X msg 780 995 10000;
#X msg 901 995 15000;
#X msg 720 995 1000;
#X msg 841 995 5000;
#X text 742 958 freq ramp time;
#X text 820 973 attack-time;
#X text 879 958 sustain-time;
#X text 939 973 release-time;
#X text 660 973 pre freq ramp time;
#X obj 694 593 cnv 19 255 30 empty empty empty 20 12 0 12 #e0e0e0 #404040 0;
#X text 816 599 1000 is a semitone;
#X text 741 599 max detune;
#X obj 633 113 cnv 19 80 180 empty empty empty 20 12 0 12 #e0e0e0 #404040 0;
#X text 702 177 end notes;
#X msg 647 120 1 D 1 \, 2 D 2 \, 3 A 2 \, 3 D 3 \, 3 A 3 \, 3 D 4 \, 3 A 4 \, 3 D 5 \, 3 A 5 \, 3 D 6 \, 3 F# 6, f 7;
#X text 702 195 amount note octave;
#X text 509 539 amount of this note;
#X text 454 655 detune each individual note;
#X msg 1103 76 \; pd compatibility 0.55;
#X obj 1103 46 loadbang;
#X text 278 1106 be sure slowly ajust output volume!;
#X text 680 49 after banging play be sure slowly ajust output volume!;
#X msg 704 599 4;
#X connect 1 0 18 1;
#X connect 2 0 5 0;
#X connect 2 1 3 0;
#X connect 2 2 3 1;
#X connect 3 0 1 0;
#X connect 4 0 6 0;
#X connect 5 0 4 0;
#X connect 6 0 17 0;
#X connect 7 0 13 1;
#X connect 8 0 7 1;
#X connect 9 0 7 2;
#X connect 10 0 9 0;
#X connect 10 0 8 0;
#X connect 11 0 12 0;
#X connect 11 0 14 0;
#X connect 11 0 13 0;
#X connect 12 0 11 1;
#X connect 13 0 30 1;
#X connect 14 0 30 2;
#X connect 15 0 11 1;
#X connect 16 0 11 0;
#X connect 16 1 7 0;
#X connect 16 2 14 1;
#X connect 17 0 23 0;
#X connect 18 0 19 0;
#X connect 19 0 16 0;
#X connect 20 0 21 1;
#X connect 21 0 17 1;
#X connect 21 0 71 0;
#X connect 22 0 21 0;
#X connect 22 1 20 0;
#X connect 22 2 17 2;
#X connect 22 2 72 0;
#X connect 23 0 18 0;
#X connect 24 0 30 4;
#X connect 25 0 30 0;
#X connect 26 0 30 5;
#X connect 27 0 30 6;
#X connect 28 0 30 7;
#X connect 29 0 25 0;
#X connect 30 0 0 0;
#X connect 30 0 0 1;
#X connect 31 0 30 3;
#X connect 35 0 77 0;
#X connect 35 0 75 0;
#X connect 35 0 78 0;
#X connect 35 0 76 0;
#X connect 35 0 74 0;
#X connect 35 0 97 0;
#X connect 36 0 43 0;
#X connect 36 1 42 0;
#X connect 37 0 36 0;
#X connect 37 1 36 2;
#X connect 38 0 39 0;
#X connect 39 0 38 1;
#X connect 39 0 42 1;
#X connect 40 0 38 1;
#X connect 41 0 30 0;
#X connect 42 0 41 0;
#X connect 43 0 38 0;
#X connect 44 0 2 0;
#X connect 44 1 37 0;
#X connect 47 0 44 2;
#X connect 47 1 40 0;
#X connect 48 0 89 0;
#X connect 48 1 47 0;
#X connect 49 0 44 1;
#X connect 49 1 15 0;
#X connect 50 0 89 0;
#X connect 50 1 49 0;
#X connect 56 0 35 0;
#X connect 58 0 29 0;
#X connect 59 0 58 0;
#X connect 59 1 56 0;
#X connect 59 2 50 0;
#X connect 59 3 48 0;
#X connect 60 0 59 0;
#X connect 61 0 58 0;
#X connect 74 0 28 0;
#X connect 75 0 24 0;
#X connect 76 0 27 0;
#X connect 77 0 31 0;
#X connect 78 0 26 0;
#X connect 89 0 44 0;
#X connect 94 0 93 0;
#X connect 97 0 22 0;
