#N canvas 4 0 1920 976 12;
#X obj 765 413 line-chain 0;
#X obj 698 383 line-chain;
#X text 536 353 attack time;
#X text 610 383 sustain time;
#X text 677 413 release time;
#X obj 567 523 line~;
#X obj 567 643 outlet~;
#X obj 567 613 *~;
#X obj 617 523 line~;
#X text 535 523 freq;
#X text 657 523 amp;
#X obj 567 303 line-chain 1;
#X text 499 303 freq line;
#X obj 500 153 inlet start-bang;
#X obj 575 183 inlet start-freq;
#X obj 607 213 inlet end-freq;
#X obj 647 273 inlet freq-time;
#X obj 575 493 f;
#X msg 625 493 0;
#X obj 698 323 inlet attack-time;
#X obj 617 353 line-chain 1;
#X obj 765 353 inlet sustain-time;
#X obj 846 383 inlet release-time;
#X obj 617 243 inlet pre-freq-time;
#X obj 500 273 line-chain;
#X text 405 273 pre freq time;
#X obj 603 583 equal-loudness-ajustment;
#X obj 567 583 *~;
#X obj 500 193 t b b;
#X obj 500 223 t b b;
#X obj 532 463 t b b;
#X text 402 463 reset freq and amp;
#X text 285 223 start freq and amp line chains;
#X text 693 183 freq line chain;
#X text 824 322 amp line chain;
#X text 602 611 works need to be done on synth panning and eq;
#X obj 567 553 synth;
#X connect 0 0 8 0;
#X connect 1 1 0 0;
#X connect 5 0 26 0;
#X connect 5 0 36 0;
#X connect 7 0 6 0;
#X connect 8 0 7 1;
#X connect 11 0 5 0;
#X connect 13 0 28 0;
#X connect 14 0 17 0;
#X connect 15 0 11 1;
#X connect 16 0 11 2;
#X connect 17 0 5 0;
#X connect 18 0 8 0;
#X connect 19 0 20 2;
#X connect 20 0 8 0;
#X connect 20 1 1 0;
#X connect 21 0 1 2;
#X connect 22 0 0 2;
#X connect 23 0 24 2;
#X connect 24 1 11 0;
#X connect 26 0 27 1;
#X connect 27 0 7 0;
#X connect 28 0 29 0;
#X connect 28 1 30 0;
#X connect 29 0 24 0;
#X connect 29 1 20 0;
#X connect 30 0 17 0;
#X connect 30 1 18 0;
#X connect 36 0 27 0;
